# xmcd
#
# Track frame offsets:
#	150
#	16127
#	32015
#	50122
#	69167
#	85427
#	101672
#	122090
#	138870
#	155940
#	173460
#	191800
#	206370
#
# Disc length: 2949 seconds
#
# Revision: 5
# Processed by: cddbd v1.5.2PL0 Copyright (c) Steve Scherf et al.
# Submitted via: audiograbber 1.83.01
#
DISCID=ae0b830d
DTITLE=Roberta Miranda - Caminhos
DYEAR=1999
DGENRE=Country
TTITLE0=Se é Pra Brincar de Amor
TTITLE1=Amanhã [Part. Esp. Reginaldo Rossi]
TTITLE2=No Coração, A Paixão, Na Cabeça, O Ciúme
TTITLE3=Voz de Deus
TTITLE4=Eu Quero Confessar
TTITLE5=Quero Você Pra Mim
TTITLE6=Além de Mim
TTITLE7=Fim de Conversa
TTITLE8=Não Tem Pra Ninguém
TTITLE9=Cowboy dos Sonhos
TTITLE10=Melhor Que Seja Agora
TTITLE11=Fantasmas
TTITLE12=Caminhei
EXTD=Dados Por - Dayvison de Azevedo - Recife - PE\nFacebook - https://www.face
EXTD=book.com/profile.php?id=100006142608616
EXTT0=
EXTT1=
EXTT2=
EXTT3=
EXTT4=
EXTT5=
EXTT6=
EXTT7=
EXTT8=
EXTT9=
EXTT10=
EXTT11=
EXTT12=
PLAYORDER=
